<svg id="logo-7" xmlns="http://www.w3.org/2000/svg" viewBox="0 0 118.78 27.12"><defs><style>.cls-1{fill:#fff;}</style></defs><title>logoipsum-217-light</title><path class="cls-1" d="M36.87,14.07h3V26.2h-3Zm4.19,7.55c0-3,1.84-4.79,4.68-4.79s4.68,1.79,4.68,4.79-1.8,4.8-4.68,4.8S41.06,24.67,41.06,21.62Zm6.35,0c0-1.65-.65-2.62-1.67-2.62s-1.66,1-1.66,2.62.63,2.6,1.66,2.6,1.67-.92,1.67-2.59Zm4.14,5.17h2.88a1.54,1.54,0,0,0,1.62.9c1.14,0,1.74-.62,1.74-1.52V24.49h-.06A2.83,2.83,0,0,1,55,26.13c-2.19,0-3.64-1.67-3.64-4.54s1.38-4.68,3.68-4.68a2.87,2.87,0,0,1,2.76,1.76h0V17h3v9.1c0,2.19-1.93,3.55-4.78,3.55-2.65,0-4.3-1.19-4.47-2.85Zm6.25-5.18c0-1.46-.67-2.38-1.73-2.38s-1.71.91-1.71,2.38.64,2.3,1.71,2.3,1.73-.81,1.73-2.29Zm4.13,0c0-3,1.84-4.79,4.68-4.79a4.4,4.4,0,0,1,4.69,4.79c0,3-1.8,4.8-4.69,4.8s-4.68-1.74-4.68-4.79Zm6.35,0c0-1.65-.65-2.62-1.67-2.62S65,20,65,21.63s.63,2.6,1.65,2.6,1.63-.93,1.63-2.6Zm4.16-6.79a1.48,1.48,0,0,1,.24-.86,1.51,1.51,0,0,1,.67-.58,1.56,1.56,0,0,1,.88-.11,1.6,1.6,0,0,1,.8.4,1.47,1.47,0,0,1,.43.78,1.51,1.51,0,0,1-.06.89,1.56,1.56,0,0,1-.55.69,1.54,1.54,0,0,1-.85.28,1.48,1.48,0,0,1-.59-.08,1.66,1.66,0,0,1-.51-.31,1.49,1.49,0,0,1-.34-.49,1.52,1.52,0,0,1-.12-.59Zm0,2.2h3V26.2h-3Zm13.89,4.59c0,3-1.33,4.71-3.61,4.71a2.89,2.89,0,0,1-1.67-.41,2.84,2.84,0,0,1-1.13-1.29h-.06v4.52h-3V17h3v1.64h.06A2.86,2.86,0,0,1,81,17.32a2.83,2.83,0,0,1,1.67-.45c2.3,0,3.67,1.76,3.67,4.76Zm-3,0c0-1.46-.67-2.39-1.72-2.39s-1.72.94-1.73,2.39S80.56,24,81.61,24s1.72-.91,1.72-2.36Zm8.15-4.8c2.49,0,4,1.18,4.07,3.07H92.82c0-.65-.54-1.06-1.37-1.06s-1.2.32-1.2.79.33.62,1,.76l1.92.39c1.83.39,2.61,1.13,2.61,2.52,0,1.9-1.73,3.12-4.28,3.12s-4.22-1.22-4.35-3.09H90c.09.68.63,1.08,1.51,1.08s1.28-.29,1.28-.77-.28-.58-1-.73l-1.73-.37c-1.79-.37-2.73-1.32-2.73-2.72,0-1.8,1.63-3,4.11-3Zm14.31,9.37H102.9V24.47h-.06a2.62,2.62,0,0,1-2.66,1.91,3.22,3.22,0,0,1-1.34-.21A3.16,3.16,0,0,1,97,24.27a3.07,3.07,0,0,1-.18-1.34V17h3v5.24c0,1.09.56,1.67,1.49,1.67a1.53,1.53,0,0,0,1.52-1.73V17h3ZM107.24,17h2.9v1.77h.06a2.64,2.64,0,0,1,2.61-1.94,2.38,2.38,0,0,1,2.55,2h.06a2.83,2.83,0,0,1,2.82-2,2.88,2.88,0,0,1,2.19.89,2.78,2.78,0,0,1,.64,1,2.87,2.87,0,0,1,.17,1.2V26.2h-3V20.75c0-1-.45-1.46-1.29-1.46a1.41,1.41,0,0,0-.54.11,1.35,1.35,0,0,0-.45.33,1.18,1.18,0,0,0-.27.49,1.28,1.28,0,0,0,0,.55V26.2h-2.85V20.71c0-.92-.45-1.42-1.27-1.42a1.3,1.3,0,0,0-.55.12,1.35,1.35,0,0,0-.45.33,1.32,1.32,0,0,0-.33,1.05V26.2h-3Z" transform="translate(-2.47 -6.43)"/><path class="cls-1" d="M28.48,14.62a13.24,13.24,0,0,0-2-3.22,13.57,13.57,0,0,0-9.91-5A13.54,13.54,0,0,0,2.51,21,13.5,13.5,0,0,0,7.8,30.72,13.2,13.2,0,0,0,11,32.55a13.36,13.36,0,0,0,5.07,1A13.54,13.54,0,0,0,28.48,14.62ZM16.06,9.19a10.71,10.71,0,0,1,4.52,1h0a4.59,4.59,0,0,1-1.08.31,5.73,5.73,0,0,0-4.85,4.85A3,3,0,0,1,11.94,18a5.73,5.73,0,0,0-4.85,4.85,2.91,2.91,0,0,1-.79,1.74h0a10.78,10.78,0,0,1,.64-10.4,10.65,10.65,0,0,1,3.92-3.68,10.81,10.81,0,0,1,5.21-1.34ZM7.79,27l.36-.33a5.47,5.47,0,0,0,1.62-3.23,2.87,2.87,0,0,1,.87-1.82,2.84,2.84,0,0,1,1.81-.86,5.73,5.73,0,0,0,4.85-4.85A2.93,2.93,0,0,1,20,13.17a5.44,5.44,0,0,0,3-1.43,10.51,10.51,0,0,1,2.36,2.78.86.86,0,0,1-.13.14,2.91,2.91,0,0,1-1.81.88,5.73,5.73,0,0,0-4.85,4.85,3,3,0,0,1-2.69,2.68A5.78,5.78,0,0,0,11,27.92a3.06,3.06,0,0,1-.49,1.37A10.86,10.86,0,0,1,7.79,27Zm8.27,3.86a10.92,10.92,0,0,1-3-.42,5.86,5.86,0,0,0,.64-2,3,3,0,0,1,.86-1.82,3,3,0,0,1,1.82-.86,5.73,5.73,0,0,0,4.86-4.85,3,3,0,0,1,2.68-2.68,5.69,5.69,0,0,0,2.56-1,10.79,10.79,0,0,1-1.88,9.35,10.87,10.87,0,0,1-8.54,4.23Z" transform="translate(-2.47 -6.43)"/></svg>